<svg fill="#fff" width="218" height="40" viewBox="0 0 218 40" xmlns="http://www.w3.org/2000/svg"><title>40F526CD-7804-4F3D-8C6D-9D5B94BB474A</title><path d="M101.407 35.413V28.49h-.98v-2.148h4.409v2.148h-.915v6.924h.915v2.148h-4.409v-2.148h.98zm-69.564-7.592c0 .544.316.674.702.29l7.18-7.148a.987.987 0 0 0 0-1.397l-7.18-7.15c-.386-.384-.702-.254-.702.29V27.82zM15.508 8.4c.546 0 .993.444.993.988v5.484c0 .544.446.988.992.988h5.441a.993.993 0 0 0 .992-.988V9.388c0-.544.447-.988.993-.988h3.064c.545 0 .676-.315.29-.699L20.828.288a.998.998 0 0 0-1.403 0l-7.446 7.413c-.386.384-.255.699.29.699h3.24zm-7.161 3.818c0-.544-.317-.674-.703-.29L.29 19.251a.989.989 0 0 0 0 1.397l7.355 7.324c.386.383.703.254.703-.29V12.218zm16.4 19.479a.994.994 0 0 1-.994-.99v-5.816a.993.993 0 0 0-.991-.989h-5.44a.994.994 0 0 0-.994.99v5.816a.993.993 0 0 1-.992.989H12.27c-.545 0-.676.314-.29.698l7.271 7.24a1 1 0 0 0 1.404 0l7.272-7.24c.386-.384.256-.698-.29-.698h-2.89zM60.7 4.355v7.49c0 .254.01.534.026.81-.2-.337-.42-.694-.636-1.008L53.76 2.44h-3.267v13.646c0 .13-.028.157-.158.157h-1.346V19.5h3.313c1.313 0 1.925-.61 1.925-1.917v-7.466c0-.25-.011-.527-.027-.799.2.338.421.69.637.997L61.19 19.5h3.242V5.853c0-.13.029-.157.158-.157h1.346V2.439h-3.312c-1.296 0-1.924.627-1.924 1.916m15.259-2.404c-4.96 0-8.844 3.818-8.844 8.692 0 5.003 3.885 8.921 8.844 8.921 4.96 0 8.844-3.918 8.844-8.921 0-4.874-3.884-8.692-8.844-8.692m0 14.104c-2.801 0-4.995-2.377-4.995-5.412 0-2.905 2.194-5.182 4.995-5.182s4.995 2.277 4.995 5.182c0 3.035-2.194 5.412-4.995 5.412M99.982 5.696h.767V2.44h-2.272c-1.306 0-1.853.384-2.251 1.573l-3.171 9.124c-.113.32-.222.703-.317 1.067a14.16 14.16 0 0 0-.316-1.065l-3.147-9.122c-.399-1.193-.947-1.577-2.253-1.577H84.75v3.257h.767c.254 0 .3.034.388.278l4.99 13.526h3.707l4.992-13.53c.085-.24.132-.274.387-.274m14.147 10.27L109.184 2.44h-3.662l-4.97 13.536c-.09.268-.116.268-.361.268h-.745V19.5h2.18c1.306 0 1.853-.383 2.25-1.567l.957-2.628h5.04l.955 2.62c.399 1.192.946 1.575 2.254 1.575h2.155v-3.257h-.721c-.242 0-.28 0-.388-.277m-6.778-8.689c.11.412.237.851.354 1.202l1.252 3.639h-3.185l1.232-3.642c.117-.35.24-.788.347-1.199m24.462-4.838h-7.871v3.257h1.504V19.5h3.732v-5.646h2.635c3.286 0 5.58-2.361 5.58-5.742 0-3.34-2.294-5.673-5.58-5.673zm-2.635 3.257h2.126c1.433 0 2.287.903 2.287 2.416 0 1.565-.85 2.462-2.332 2.462h-2.08V5.696zm17.815-3.745c-4.96 0-8.845 3.818-8.845 8.692 0 5.003 3.885 8.921 8.845 8.921 4.958 0 8.843-3.918 8.843-8.921 0-4.874-3.885-8.692-8.843-8.692m0 14.104c-2.802 0-4.997-2.377-4.997-5.412 0-2.905 2.195-5.182 4.997-5.182 2.8 0 4.995 2.277 4.995 5.182 0 3.035-2.195 5.412-4.995 5.412m16.661-7.18c-1.455-.621-2.71-1.157-2.71-2.081 0-.826.845-1.402 2.055-1.402.972 0 1.825.429 1.825.918v1.087h3.455v-1.87c0-2.605-3.223-3.576-5.257-3.576-3.325 0-5.835 2.131-5.835 4.958 0 3.167 2.737 4.414 4.936 5.417 1.5.684 2.794 1.274 2.794 2.234 0 1.17-1.07 1.586-1.987 1.586-2.12 0-3.699-1.796-3.715-1.814l-.273-.315-2.178 2.66.174.22c.088.109 2.163 2.667 5.946 2.667 2.889 0 5.812-1.775 5.812-5.165 0-3.373-2.796-4.566-5.042-5.524m18.117-4.52v5.02h-6.542v-5.02c0-1.29-.63-1.916-1.924-1.916h-3.314v3.257h1.346c.131 0 .159.028.159.157V19.5h3.733v-6.868h6.542V19.5h3.733V5.853c0-.13.028-.157.16-.157h1.345V2.439h-3.313c-1.277 0-1.925.645-1.925 1.916m21.466 2.839V4.263c0-1.278-.549-1.824-1.832-1.824h-11.48c-1.267 0-1.808.546-1.808 1.824v2.93h3.363v-1.34c0-.14.016-.157.159-.157h2.172V19.5h3.732V5.696h2.148c.143 0 .16.016.16.157v1.34h3.386zm13.666 9.049c-.243 0-.28 0-.388-.277L211.57 2.439h-3.661l-4.97 13.536c-.09.268-.116.268-.363.268h-.742V19.5h2.178c1.307 0 1.855-.383 2.25-1.567l.958-2.627h5.04l.954 2.619c.4 1.192.947 1.575 2.254 1.575h2.155v-3.257h-.72zm-7.167-8.966c.112.412.238.851.355 1.202l1.252 3.639h-3.187l1.233-3.642c.117-.35.24-.788.347-1.199zM114.09 27.602v4.925c0 .167.008.351.018.533-.133-.222-.28-.456-.423-.663l-4.208-6.056h-2.172v8.975c0 .085-.02.103-.105.103h-.895v2.142h2.203c.872 0 1.279-.4 1.279-1.26v-4.91a8.78 8.78 0 0 0-.018-.526c.133.222.28.455.424.656l4.223 6.04h2.156v-8.974c0-.085.019-.104.105-.104h.895v-2.142h-2.202c-.862 0-1.28.413-1.28 1.26m-28.1-1.26h-5.16v2.142h.986v9.078h2.447v-3.713h1.727c2.154 0 3.658-1.553 3.658-3.776 0-2.196-1.504-3.73-3.658-3.73zm-1.727 2.142h1.394c.939 0 1.499.594 1.499 1.589 0 1.03-.557 1.62-1.53 1.62h-1.363v-3.209zm11.525-2.142h-5.16v2.142h.986v9.078h2.447v-3.713h1.727c2.154 0 3.658-1.553 3.658-3.776 0-2.196-1.504-3.73-3.658-3.73zm-1.727 2.142h1.393c.94 0 1.5.594 1.5 1.589 0 1.03-.557 1.62-1.53 1.62h-1.363v-3.209zm-19.109-2.63c-3.297 0-5.879 2.538-5.879 5.778 0 3.325 2.582 5.93 5.88 5.93 3.295 0 5.877-2.605 5.877-5.93 0-3.24-2.582-5.777-5.878-5.777m0 9.374c-1.862 0-3.321-1.58-3.321-3.597 0-1.931 1.459-3.444 3.321-3.444 1.861 0 3.32 1.513 3.32 3.444 0 2.017-1.459 3.597-3.32 3.597m51.601 1.748a5.957 5.957 0 0 1-2.595.585c-3.306 0-5.896-2.605-5.896-5.93 0-3.24 2.59-5.777 5.896-5.777 1.725 0 3.255.69 4.324 1.811l-1.953 1.526a3.264 3.264 0 0 0-2.37-1.004c-1.869 0-3.332 1.513-3.332 3.444 0 2.017 1.463 3.597 3.331 3.597 1.06 0 1.99-.51 2.595-1.318v-.599h-1.633v-2.27h3.92v6.485h-2.287v-.55zm-73.529-6.52c-.956-.413-1.78-.77-1.78-1.384 0-.548.555-.931 1.35-.931.638 0 1.199.285 1.199.61v.723h2.27V28.23c0-1.731-2.118-2.376-3.454-2.376-2.185 0-3.833 1.416-3.833 3.295 0 2.105 1.798 2.934 3.242 3.601.985.454 1.835.847 1.835 1.485 0 .778-.703 1.054-1.305 1.054-1.392 0-2.43-1.194-2.44-1.206l-.18-.21-1.43 1.769.114.146c.058.073 1.421 1.773 3.906 1.773 1.898 0 3.818-1.18 3.818-3.433 0-2.242-1.836-3.035-3.312-3.672m12.092-2.854v3.301h-4.332v-3.301c0-.848-.417-1.26-1.274-1.26h-2.194v2.141h.891c.087 0 .105.019.105.104v8.974h2.472v-4.517h4.332v4.517h2.471v-8.974c0-.085.018-.104.106-.104h.89v-2.142H66.39c-.846 0-1.274.425-1.274 1.26" fill-rule="evenodd"/></svg>